<?xml version="1.0" standalone="no"?>
<!DOCTYPE svg PUBLIC "-//W3C//DTD SVG 20010904//EN"
 "http://www.w3.org/TR/2001/REC-SVG-20010904/DTD/svg10.dtd">
<svg version="1.0" xmlns="http://www.w3.org/2000/svg"
 width="500.000000pt" height="500.000000pt" viewBox="0 0 500.000000 500.000000"
 preserveAspectRatio="xMidYMid meet">

<g transform="translate(0.000000,500.000000) scale(0.100000,-0.100000)"
fill="#000000" stroke="none">
<path d="M1216 4344 c-3 -9 -6 -578 -6 -1265 l0 -1249 1038 0 c570 -1 1174 -2
1342 -3 l305 -2 3 1268 2 1267 -1339 0 c-1212 0 -1339 -2 -1345 -16z m2634
-114 l0 -91 -92 3 -93 3 -3 68 -3 67 -1107 -2 -1107 -3 -3 -68 -3 -68 -92 3
-92 3 -1 80 c-1 44 0 83 3 88 2 4 587 7 1299 7 l1294 0 0 -90z m-220 -55 l0
-65 70 0 70 0 0 -1020 0 -1020 -70 0 -70 0 0 -65 0 -65 -1075 0 -1075 0 0 65
0 65 -70 0 -70 0 0 1020 0 1020 70 0 70 0 0 65 0 65 1075 0 1075 0 0 -65z
m-2330 -1086 l0 -1020 -22 3 -23 3 -3 1005 c-1 553 0 1011 3 1018 2 6 14 12
25 12 20 0 20 -1 20 -1021z m2550 1 c0 -1013 0 -1020 -20 -1020 -20 0 -20 7
-20 1020 0 1013 0 1020 20 1020 20 0 20 -7 20 -1020z m-2410 -1115 l0 -65
1113 0 1112 0 0 62 0 63 93 3 92 3 0 -84 0 -85 -32 -5 c-47 -8 -2498 -9 -2536
-1 l-32 7 0 77 c0 42 3 80 7 83 3 4 46 7 95 7 l88 0 0 -65z"/>
<path d="M1280 4239 l0 -50 53 3 52 3 3 48 3 47 -55 0 -56 0 0 -51z"/>
<path d="M3722 4243 l3 -48 50 0 50 0 3 48 3 47 -56 0 -56 0 3 -47z"/>
<path d="M2413 3895 c-100 -18 -164 -40 -268 -93 -74 -38 -107 -63 -185 -142
-78 -77 -105 -112 -143 -186 -76 -148 -92 -220 -92 -409 0 -136 4 -172 23
-240 31 -107 98 -245 158 -325 l49 -65 5 328 5 328 80 58 80 57 0 100 c1 79 6
111 24 159 69 175 205 292 379 326 75 14 209 7 297 -16 103 -26 233 -97 298
-162 67 -66 101 -119 133 -207 13 -36 28 -62 38 -64 14 -3 16 24 16 272 0 241
-2 276 -15 276 -9 0 -20 -12 -26 -27 -15 -41 -48 -72 -84 -79 -23 -4 -59 4
-126 29 -52 19 -116 42 -144 51 -140 44 -356 58 -502 31z"/>
<path d="M2318 3507 l-88 -52 0 -125 0 -125 65 -42 65 -43 2 -457 3 -458 28
-3 27 -3 0 680 c0 375 -3 681 -7 680 -5 0 -47 -23 -95 -52z"/>
<path d="M2480 2865 l0 -675 30 0 30 0 0 659 0 659 -25 16 c-13 9 -27 16 -30
16 -3 0 -5 -304 -5 -675z"/>
<path d="M2600 2836 l0 -646 108 0 c222 0 437 43 585 117 l47 23 0 345 0 345
-310 0 c-303 0 -310 0 -310 -20 0 -17 7 -20 53 -20 67 0 126 -16 156 -43 47
-44 51 -68 51 -348 l0 -261 -33 -33 c-55 -55 -170 -70 -249 -34 l-28 12 -2
586 -3 585 -32 19 -33 19 0 -646z"/>
<path d="M2949 3291 c-60 -61 -24 -151 61 -151 54 0 90 34 90 85 0 48 -45 95
-90 95 -22 0 -41 -9 -61 -29z"/>
<path d="M2196 2725 c-4 -250 -4 -460 -1 -465 3 -6 13 -10 21 -10 12 0 14 67
14 465 0 383 -2 465 -13 465 -11 0 -15 -84 -21 -455z"/>
<path d="M2112 3138 l-22 -11 2 -405 3 -405 23 -15 22 -14 0 431 c0 237 -1
431 -2 430 -2 0 -13 -5 -26 -11z"/>
<path d="M2023 3083 c-10 -4 -13 -83 -13 -353 0 -299 2 -349 15 -360 9 -7 17
-11 19 -9 2 2 0 166 -3 365 -5 282 -9 360 -18 357z"/>
<path d="M1280 1940 l0 -50 55 0 55 0 0 50 0 50 -55 0 -55 0 0 -50z"/>
<path d="M3720 1941 l0 -51 56 0 55 0 -3 48 -3 47 -52 3 -53 3 0 -50z"/>
<path d="M1202 1533 c-22 -24 -23 -26 -23 -318 l0 -293 26 -26 c26 -26 28 -26
176 -26 127 0 151 2 156 16 3 8 17 20 31 25 19 7 22 13 14 21 -15 15 -16 202
-2 229 9 16 7 21 -15 29 -14 5 -25 16 -25 25 0 12 -13 15 -57 15 l-58 0 -38
-55 -38 -55 40 0 41 0 0 -75 c0 -68 -2 -76 -25 -91 -23 -15 -27 -15 -50 0
l-25 16 0 248 c0 262 2 272 46 272 32 0 54 -26 54 -65 0 -31 6 -37 68 -74 42
-26 68 -36 69 -28 1 6 4 54 6 105 2 70 0 92 -10 92 -7 0 -17 9 -23 20 -10 19
-20 20 -163 19 -148 -1 -153 -2 -175 -26z"/>
<path d="M1760 1551 c0 -6 5 -13 10 -16 6 -3 10 -15 10 -26 0 -10 5 -19 10
-19 6 0 10 -98 10 -275 0 -177 -4 -275 -10 -275 -5 0 -10 -9 -10 -19 0 -11 -4
-23 -10 -26 -33 -20 8 -25 212 -25 214 0 221 1 205 18 -10 10 -17 26 -17 35 0
9 -4 17 -10 17 -6 0 -10 40 -10 100 0 55 -3 100 -6 100 -4 0 -38 -19 -75 -42
l-69 -43 0 -53 c0 -39 -4 -54 -16 -59 -9 -3 -20 0 -25 8 -12 20 -12 539 1 539
6 0 10 8 10 17 0 9 7 25 17 35 15 17 12 18 -105 18 -70 0 -122 -4 -122 -9z"/>
<path d="M2393 1546 c-4 -7 -18 -18 -31 -25 -18 -10 -20 -15 -12 -31 14 -26
13 -525 0 -551 -9 -16 -7 -21 13 -28 13 -5 27 -17 30 -25 5 -14 29 -16 156
-16 148 0 150 0 176 26 l26 26 0 293 0 293 -26 26 c-26 26 -28 26 -175 26
-115 0 -151 -3 -157 -14z m195 -68 c9 -9 12 -81 12 -263 l0 -252 -26 -11 c-28
-13 -58 -3 -68 24 -3 8 -6 120 -6 247 0 200 2 233 17 249 18 21 53 24 71 6z"/>
<path d="M2521 1236 c-20 -24 4 -58 37 -54 23 2 27 8 27 33 0 25 -4 31 -26 33
-14 2 -31 -4 -38 -12z"/>
<path d="M2918 1548 c7 -7 12 -22 12 -35 0 -13 5 -23 10 -23 6 0 10 -98 10
-275 0 -177 -4 -275 -10 -275 -5 0 -10 -10 -10 -23 0 -13 -5 -28 -12 -35 -9
-9 16 -12 112 -12 96 0 121 3 112 12 -7 7 -12 22 -12 34 0 12 -7 24 -15 28
-12 4 -15 24 -15 89 0 71 3 87 20 102 16 14 21 15 25 4 37 -100 63 -195 55
-197 -5 -2 -10 -11 -10 -20 0 -8 -7 -24 -17 -34 -15 -17 -12 -18 97 -18 89 0
111 3 102 12 -7 7 -12 22 -12 35 0 13 -6 23 -13 23 -8 0 -31 54 -57 136 l-45
136 25 18 c68 50 64 43 50 84 -12 38 -9 138 5 184 6 16 3 22 -9 22 -9 0 -21 9
-28 20 -12 19 -24 20 -197 20 -144 0 -182 -3 -173 -12z m240 -178 c3 -109 2
-115 -20 -132 -13 -10 -26 -18 -30 -18 -5 0 -8 61 -8 136 l0 135 28 -3 27 -3
3 -115z"/>
<path d="M3558 1548 c7 -7 12 -22 12 -35 0 -13 5 -23 10 -23 6 0 10 -98 10
-275 0 -177 -4 -275 -10 -275 -5 0 -10 -11 -10 -25 0 -14 -4 -25 -10 -25 -5 0
-10 -4 -10 -10 0 -6 47 -10 122 -10 95 0 119 3 110 12 -7 7 -12 22 -12 34 0
12 -7 24 -15 28 -13 5 -15 45 -15 276 0 233 2 270 15 270 9 0 15 9 15 23 0 13
5 28 12 35 9 9 -16 12 -112 12 -96 0 -121 -3 -112 -12z"/>
</g>
</svg>
